{
	"asset":{
		"version":"2.0",
		"generator":"Maxon Cinema 4D 2023.2.1 (#200000219)"
	},
	"scenes":[{
		"nodes":[0]
	}],
	"nodes":[{
		"name":"Subdivisión Superficie",
		"translation":[0.05592898651957512,
		0.028828565031290056,
		-0.026003830134868623],
		"rotation":[-0.20811237394809724,
		0.0,
		0.0,
		-0.9781049489974976],
		"scale":[1.0,
		1.0,
		1.0],
		"children":[1]
	},
	{
		"name":"montura.2",
		"mesh":0,
		"translation":[-0.8202662467956543,
		0.024232221767306329,
		0.007476742845028639],
		"rotation":[0.20811237394809724,
		0.0,
		0.0,
		-0.9781049489974976],
		"scale":[1.0,
		1.0,
		1.0]
	}],
	"meshes":[{
		"name":"montura.2",
		"primitives":[{
			"attributes":{
				"POSITION":1,
				"NORMAL":2,
				"TEXCOORD_0":3
			},
			"indices":0,
			"material":0
		}]
	}],
	"accessors":[{
		"bufferView":0,
		"type":"SCALAR",
		"componentType":5123,
		"count":306516,
		"byteOffset":0,
		"min":[0],
		"max":[55843]
	},
	{
		"bufferView":1,
		"type":"VEC3",
		"componentType":5126,
		"count":55844,
		"byteOffset":0,
		"min":[-0.07843399792909622,
		-0.04404143989086151,
		0.03239021450281143],
		"max":[0.08996760100126267,
		0.012543036602437497,
		0.04426559433341026]
	},
	{
		"bufferView":1,
		"type":"VEC3",
		"componentType":5126,
		"count":55844,
		"byteOffset":12,
		"min":[-1.0,
		-0.9999980926513672,
		-0.9999998807907105],
		"max":[1.0,
		0.9999957084655762,
		1.0]
	},
	{
		"bufferView":1,
		"type":"VEC2",
		"componentType":5126,
		"count":55844,
		"byteOffset":24,
		"min":[0.0,
		0.0],
		"max":[1.0,
		1.0]
	}],
	"bufferViews":[{
		"buffer":0,
		"byteOffset":0,
		"byteLength":613032,
		"target":34963
	},
	{
		"buffer":0,
		"byteOffset":613032,
		"byteLength":1787008,
		"target":34962,
		"byteStride":32
	}],
	"buffers":[{
		"uri":"data:application/octet-stream;base64,",
		"byteLength":2400040
	}],
	"materials":[{
		"pbrMetallicRoughness":{
			"baseColorFactor":[1.0,
			1.0,
			1.0,
			1.0],
			"metallicFactor":1.0,
			"roughnessFactor":1.0
		},
		"emissiveFactor":[0.0,
		0.0,
		0.0],
		"alphaMode":"OPAQUE",
		"doubleSided":false,
		"name":"Verde"
	}]
}