{
	"asset":{
		"version":"2.0",
		"generator":"Maxon Cinema 4D 2023.2.1 (#200000219)"
	},
	"scenes":[{
		"nodes":[0]
	}],
	"nodes":[{
		"name":"Subdivisión Superficie",
		"translation":[0.05092987045645714,
		-0.03232972323894501,
		0.029288506135344507],
		"rotation":[-0.16943073272705079,
		0.0,
		0.0,
		-0.9855421185493469],
		"scale":[1.0,
		1.0,
		1.0],
		"children":[1]
	},
	{
		"name":"montura",
		"mesh":0,
		"translation":[-0.8210319876670837,
		0.04479131102561951,
		-0.10194011777639389],
		"rotation":[0.2164396196603775,
		0.0,
		0.0,
		-0.9762960076332092],
		"scale":[1.0,
		1.0,
		1.0]
	}],
	"meshes":[{
		"name":"montura",
		"primitives":[{
			"attributes":{
				"POSITION":1,
				"NORMAL":2,
				"TEXCOORD_0":3
			},
			"indices":0,
			"material":0
		}]
	}],
	"accessors":[{
		"bufferView":0,
		"type":"SCALAR",
		"componentType":5123,
		"count":290880,
		"byteOffset":0,
		"min":[0],
		"max":[52458]
	},
	{
		"bufferView":1,
		"type":"VEC3",
		"componentType":5126,
		"count":52459,
		"byteOffset":0,
		"min":[-0.08419880270957947,
		-0.04794345796108246,
		-0.008970621041953564],
		"max":[0.08434674888849259,
		0.008583358488976956,
		-0.00013300948194228113]
	},
	{
		"bufferView":1,
		"type":"VEC3",
		"componentType":5126,
		"count":52459,
		"byteOffset":12,
		"min":[-1.0,
		-1.0,
		-1.0],
		"max":[1.0,
		1.0,
		1.0]
	},
	{
		"bufferView":1,
		"type":"VEC2",
		"componentType":5126,
		"count":52459,
		"byteOffset":24,
		"min":[0.0,
		0.0],
		"max":[1.0,
		1.0]
	}],
	"bufferViews":[{
		"buffer":0,
		"byteOffset":0,
		"byteLength":581760,
		"target":34963
	},
	{
		"buffer":0,
		"byteOffset":581760,
		"byteLength":1678688,
		"target":34962,
		"byteStride":32
	}],
	"buffers":[{
		"uri":"data:application/octet-stream;base64,",
		"byteLength":2260448
	}],
	"materials":[{
		"pbrMetallicRoughness":{
			"baseColorFactor":[1.0,
			1.0,
			1.0,
			1.0],
			"metallicFactor":1.0,
			"roughnessFactor":1.0
		},
		"emissiveFactor":[0.0,
		0.0,
		0.0],
		"alphaMode":"OPAQUE",
		"doubleSided":false,
		"name":""
	}]
}