{
	"asset":{
		"version":"2.0",
		"generator":"Maxon Cinema 4D 2023.2.1 (#200000219)"
	},
	"scenes":[{
		"nodes":[0]
	}],
	"nodes":[{
		"name":"Gafas cuadradas",
		"translation":[-0.5630268454551697,
		0.03623161464929581,
		0.03495296090841293],
		"rotation":[0.13896992802619935,
		0.0,
		0.0,
		-0.9902966022491455],
		"scale":[14.0,
		14.0,
		14.0],
		"children":[1,
		2,
		3,
		4,
		5]
	},
	{
		"name":"Subdivisión Superficie",
		"translation":[0.07140880823135376,
		-0.0015638384502381087,
		-0.004124046303331852],
		"rotation":[-0.2164396196603775,
		0.0,
		0.0,
		-0.9762960076332092],
		"scale":[0.0714285746216774,
		0.0714285746216774,
		0.0714285746216774],
		"children":[6]
	},
	{
		"name":"Subdivisión Superficie",
		"translation":[0.07140880823135376,
		-0.0015638384502381087,
		-0.004124046303331852],
		"rotation":[-0.2164396196603775,
		0.0,
		0.0,
		-0.9762960076332092],
		"scale":[0.0714285746216774,
		0.0714285746216774,
		0.0714285746216774],
		"children":[7]
	},
	{
		"name":"Subdivisión Superficie.1",
		"translation":[0.07140880823135376,
		-0.0015638384502381087,
		-0.004124046303331852],
		"rotation":[-0.2164396196603775,
		0.0,
		0.0,
		-0.9762960076332092],
		"scale":[0.0714285746216774,
		0.0714285746216774,
		0.0714285746216774],
		"children":[8]
	},
	{
		"name":"Patilla derecha.3",
		"mesh":0,
		"translation":[-0.0058222319930791859,
		-0.00009776063961908221,
		-0.00020867999410256743],
		"rotation":[-1.942890293094024e-16,
		0.0,
		0.0,
		-1.0],
		"scale":[0.0714285746216774,
		0.0714285746216774,
		0.0714285746216774]
	},
	{
		"name":"Patilla derecha.1",
		"mesh":1,
		"translation":[0.005859039723873138,
		-0.00009776063961908221,
		-0.00020867999410256743],
		"rotation":[-1.942890293094024e-16,
		0.0,
		0.0,
		-1.0],
		"scale":[0.0714285746216774,
		0.0714285746216774,
		0.0714285746216774]
	},
	{
		"name":"montura",
		"mesh":2,
		"translation":[-0.9997963309288025,
		0.045185670256614688,
		0.042822323739528659],
		"rotation":[0.2164396196603775,
		0.0,
		0.0,
		-0.9762960076332092],
		"scale":[1.0,
		1.0,
		1.0]
	},
	{
		"name":"Patilla izquierda",
		"mesh":3,
		"translation":[-0.9161605834960938,
		0.04016813263297081,
		0.03749151900410652],
		"rotation":[0.17109835147857667,
		-0.5979276895523071,
		0.13255737721920014,
		-0.7717748284339905],
		"scale":[14.0,
		14.0,
		14.0]
	},
	{
		"name":"Patilla derecha",
		"mesh":4,
		"translation":[-1.0833858251571656,
		0.03996208310127258,
		0.03704964369535446],
		"rotation":[0.15633176267147065,
		0.6751987338066101,
		-0.1496879607439041,
		-0.7051670551300049],
		"scale":[14.0,
		14.0,
		14.0]
	}],
	"meshes":[{
		"name":"Patilla derecha.3",
		"primitives":[{
			"attributes":{
				"POSITION":1,
				"NORMAL":2,
				"TEXCOORD_0":3
			},
			"indices":0,
			"material":0
		}]
	},
	{
		"name":"Patilla derecha.1",
		"primitives":[{
			"attributes":{
				"POSITION":5,
				"NORMAL":6,
				"TEXCOORD_0":7
			},
			"indices":4,
			"material":0
		}]
	},
	{
		"name":"montura",
		"primitives":[{
			"attributes":{
				"POSITION":9,
				"NORMAL":10,
				"TEXCOORD_0":11
			},
			"indices":8,
			"material":0
		}]
	},
	{
		"name":"Patilla izquierda",
		"primitives":[{
			"attributes":{
				"POSITION":13,
				"NORMAL":14,
				"TEXCOORD_0":15
			},
			"indices":12,
			"material":0
		}]
	},
	{
		"name":"Patilla derecha",
		"primitives":[{
			"attributes":{
				"POSITION":17,
				"NORMAL":18,
				"TEXCOORD_0":19
			},
			"indices":16,
			"material":0
		}]
	}],
	"accessors":[{
		"bufferView":0,
		"type":"SCALAR",
		"componentType":5123,
		"count":1572,
		"byteOffset":0,
		"min":[0],
		"max":[403]
	},
	{
		"bufferView":1,
		"type":"VEC3",
		"componentType":5126,
		"count":404,
		"byteOffset":0,
		"min":[-0.0016413485864177347,
		-0.0009572729468345642,
		-0.0059494804590940479],
		"max":[0.0011650470551103354,
		0.003624844830483198,
		0.0021150640677660705]
	},
	{
		"bufferView":1,
		"type":"VEC3",
		"componentType":5126,
		"count":404,
		"byteOffset":12,
		"min":[-1.0,
		-1.0,
		-0.9978092312812805],
		"max":[1.0,
		1.0,
		0.9978092312812805]
	},
	{
		"bufferView":1,
		"type":"VEC2",
		"componentType":5126,
		"count":404,
		"byteOffset":24,
		"min":[0.0,
		0.25],
		"max":[1.0,
		0.5]
	},
	{
		"bufferView":2,
		"type":"SCALAR",
		"componentType":5123,
		"count":1572,
		"byteOffset":0,
		"min":[0],
		"max":[403]
	},
	{
		"bufferView":3,
		"type":"VEC3",
		"componentType":5126,
		"count":404,
		"byteOffset":0,
		"min":[-0.0016413485864177347,
		-0.0009572729468345642,
		-0.0059494804590940479],
		"max":[0.0011650470551103354,
		0.003624844830483198,
		0.0021150640677660705]
	},
	{
		"bufferView":3,
		"type":"VEC3",
		"componentType":5126,
		"count":404,
		"byteOffset":12,
		"min":[-1.0,
		-1.0,
		-0.9978092312812805],
		"max":[1.0,
		1.0,
		0.9978092312812805]
	},
	{
		"bufferView":3,
		"type":"VEC2",
		"componentType":5126,
		"count":404,
		"byteOffset":24,
		"min":[0.0,
		0.25],
		"max":[1.0,
		0.5]
	},
	{
		"bufferView":4,
		"type":"SCALAR",
		"componentType":5123,
		"count":184320,
		"byteOffset":0,
		"min":[0],
		"max":[33438]
	},
	{
		"bufferView":5,
		"type":"VEC3",
		"componentType":5126,
		"count":33439,
		"byteOffset":0,
		"min":[-0.08419875800609589,
		-0.037478648126125339,
		-0.008967328816652298],
		"max":[0.0843467116355896,
		0.008560924790799618,
		-0.0001365719217574224]
	},
	{
		"bufferView":5,
		"type":"VEC3",
		"componentType":5126,
		"count":33439,
		"byteOffset":12,
		"min":[-1.0,
		-1.0,
		-1.0],
		"max":[1.0,
		1.0,
		1.0]
	},
	{
		"bufferView":5,
		"type":"VEC2",
		"componentType":5126,
		"count":33439,
		"byteOffset":24,
		"min":[0.0,
		0.0],
		"max":[1.0,
		1.0]
	},
	{
		"bufferView":6,
		"type":"SCALAR",
		"componentType":5123,
		"count":103329,
		"byteOffset":0,
		"min":[0],
		"max":[18887]
	},
	{
		"bufferView":7,
		"type":"VEC3",
		"componentType":5126,
		"count":18888,
		"byteOffset":0,
		"min":[-0.0005887417355552316,
		-0.0017565175658091903,
		-0.011825406923890114],
		"max":[0.00026207626797258854,
		0.0004496558103710413,
		-0.000033495580282760787]
	},
	{
		"bufferView":7,
		"type":"VEC3",
		"componentType":5126,
		"count":18888,
		"byteOffset":12,
		"min":[-1.0,
		-1.0,
		-1.0],
		"max":[1.0,
		1.0,
		1.0]
	},
	{
		"bufferView":7,
		"type":"VEC2",
		"componentType":5126,
		"count":18888,
		"byteOffset":24,
		"min":[0.0,
		0.0],
		"max":[1.0,
		1.0]
	},
	{
		"bufferView":8,
		"type":"SCALAR",
		"componentType":5123,
		"count":103287,
		"byteOffset":0,
		"min":[0],
		"max":[18885]
	},
	{
		"bufferView":9,
		"type":"VEC3",
		"componentType":5126,
		"count":18886,
		"byteOffset":0,
		"min":[-0.00026207626797258854,
		-0.0017565175658091903,
		-0.011825406923890114],
		"max":[0.0005887417355552316,
		0.0004496557521633804,
		-0.000033495580282760787]
	},
	{
		"bufferView":9,
		"type":"VEC3",
		"componentType":5126,
		"count":18886,
		"byteOffset":12,
		"min":[-1.0,
		-1.0,
		-0.99996417760849],
		"max":[1.0,
		1.0,
		0.9999651312828064]
	},
	{
		"bufferView":9,
		"type":"VEC2",
		"componentType":5126,
		"count":18886,
		"byteOffset":24,
		"min":[0.0,
		0.0],
		"max":[1.0,
		1.0]
	}],
	"bufferViews":[{
		"buffer":0,
		"byteOffset":0,
		"byteLength":3144,
		"target":34963
	},
	{
		"buffer":0,
		"byteOffset":3144,
		"byteLength":12928,
		"target":34962,
		"byteStride":32
	},
	{
		"buffer":1,
		"byteOffset":0,
		"byteLength":3144,
		"target":34963
	},
	{
		"buffer":1,
		"byteOffset":3144,
		"byteLength":12928,
		"target":34962,
		"byteStride":32
	},
	{
		"buffer":2,
		"byteOffset":0,
		"byteLength":368640,
		"target":34963
	},
	{
		"buffer":2,
		"byteOffset":368640,
		"byteLength":1070048,
		"target":34962,
		"byteStride":32
	},
	{
		"buffer":3,
		"byteOffset":0,
		"byteLength":206658,
		"target":34963
	},
	{
		"buffer":3,
		"byteOffset":206660,
		"byteLength":604416,
		"target":34962,
		"byteStride":32
	},
	{
		"buffer":4,
		"byteOffset":0,
		"byteLength":206574,
		"target":34963
	},
	{
		"buffer":4,
		"byteOffset":206576,
		"byteLength":604352,
		"target":34962,
		"byteStride":32
	}],
	"buffers":[{
		"uri":"data:application/octet-stream;base64,",
		"byteLength":16072
	},
	{
		"uri":"data:application/octet-stream;base64,",
		"byteLength":16072
	},
	{
		"uri":"data:application/octet-stream;base64,",
		"byteLength":1438688
	},
	{
		"uri":"data:application/octet-stream;base64,",
		"byteLength":811076
	},
	{
		"uri":"data:application/octet-stream;base64,",
		"byteLength":810928
	}],
	"materials":[{
		"pbrMetallicRoughness":{
			"baseColorFactor":[1.0,
			1.0,
			1.0,
			1.0],
			"metallicFactor":1.0,
			"roughnessFactor":1.0
		},
		"emissiveFactor":[0.0,
		0.0,
		0.0],
		"alphaMode":"OPAQUE",
		"doubleSided":false,
		"name":"Morado"
	}]
}