{
	"asset":{
		"version":"2.0",
		"generator":"Maxon Cinema 4D 2023.2.1 (#200000219)"
	},
	"scenes":[{
		"nodes":[0]
	}],
	"nodes":[{
		"name":"Subdivisión Superficie",
		"translation":[0.05592898651957512,
		0.028828565031290056,
		-0.026003830134868623],
		"rotation":[-0.20811237394809724,
		0.0,
		0.0,
		-0.9781049489974976],
		"scale":[1.0,
		1.0,
		1.0],
		"children":[1]
	},
	{
		"name":"montura",
		"mesh":0,
		"translation":[-0.9997963309288025,
		0.045185670256614688,
		0.042822323739528659],
		"rotation":[0.2164396196603775,
		0.0,
		0.0,
		-0.9762960076332092],
		"scale":[1.0,
		1.0,
		1.0]
	}],
	"meshes":[{
		"name":"montura",
		"primitives":[{
			"attributes":{
				"POSITION":1,
				"NORMAL":2,
				"TEXCOORD_0":3
			},
			"indices":0
		}]
	}],
	"accessors":[{
		"bufferView":0,
		"type":"SCALAR",
		"componentType":5123,
		"count":188160,
		"byteOffset":0,
		"min":[0],
		"max":[34137]
	},
	{
		"bufferView":1,
		"type":"VEC3",
		"componentType":5126,
		"count":34138,
		"byteOffset":0,
		"min":[-0.08419875800609589,
		-0.037478648126125339,
		-0.009006625972688198],
		"max":[0.0843467116355896,
		0.008560924790799618,
		-0.0001365719217574224]
	},
	{
		"bufferView":1,
		"type":"VEC3",
		"componentType":5126,
		"count":34138,
		"byteOffset":12,
		"min":[-1.0,
		-1.0,
		-1.0],
		"max":[1.0,
		1.0,
		1.0]
	},
	{
		"bufferView":1,
		"type":"VEC2",
		"componentType":5126,
		"count":34138,
		"byteOffset":24,
		"min":[0.0,
		0.0],
		"max":[1.0,
		1.0]
	}],
	"bufferViews":[{
		"buffer":0,
		"byteOffset":0,
		"byteLength":376320,
		"target":34963
	},
	{
		"buffer":0,
		"byteOffset":376320,
		"byteLength":1092416,
		"target":34962,
		"byteStride":32
	}],
	"buffers":[{
		"uri":"data:application/octet-stream;base64,",
		"byteLength":1468736
	}]
}