{
	"asset":{
		"version":"2.0",
		"generator":"Maxon Cinema 4D 2023.2.1 (#200000219)"
	},
	"scenes":[{
		"nodes":[0,
		1]
	}],
	"nodes":[{
		"name":"Caja especial.1",
		"translation":[2.1103222370147707,
		0.0,
		-0.03448561578989029],
		"rotation":[0.0,
		0.0,
		0.0,
		-1.0],
		"scale":[1.0,
		1.0,
		1.0],
		"children":[2,
		3,
		4]
	},
	{
		"name":"Subdivisión Superficie",
		"translation":[1.1544959545135499,
		-0.022737184539437295,
		-0.8261243104934692],
		"rotation":[-0.16943073272705079,
		0.0,
		0.0,
		-0.9855421185493469],
		"scale":[1.0,
		1.0,
		1.0],
		"children":[5]
	},
	{
		"name":"compartimento1",
		"translation":[0.1437809020280838,
		0.07657228410243988,
		0.09414100646972656],
		"rotation":[0.0,
		0.0,
		0.0,
		-1.0],
		"scale":[1.0,
		1.0,
		1.0],
		"children":[6,
		7]
	},
	{
		"name":"compartimento 2 completo",
		"translation":[0.0,
		0.05869126692414284,
		0.0],
		"rotation":[0.0,
		0.0,
		0.0,
		-1.0],
		"scale":[1.0,
		1.0,
		1.0],
		"children":[8,
		9]
	},
	{
		"name":"Subdivisión Superficie",
		"children":[10]
	},
	{
		"name":"montura",
		"mesh":0,
		"translation":[-0.6411653161048889,
		0.045185670256614688,
		-0.10194011777639389],
		"rotation":[0.2164396196603775,
		0.0,
		0.0,
		-0.9762960076332092],
		"scale":[1.0,
		1.0,
		1.0]
	},
	{
		"name":"Subdivisión Superficie",
		"translation":[-0.1437809020280838,
		-0.1620640605688095,
		-0.09414100646972656],
		"rotation":[0.0,
		0.0,
		0.0,
		-1.0],
		"scale":[1.0,
		1.0,
		1.0],
		"children":[11]
	},
	{
		"name":"Subdivisión Superficie",
		"translation":[-0.1437809020280838,
		-0.05709560588002205,
		-0.09414100646972656],
		"rotation":[0.0,
		0.0,
		0.0,
		-1.0],
		"scale":[1.0,
		1.0,
		1.0],
		"children":[12]
	},
	{
		"name":"caja",
		"translation":[0.0,
		0.09395071864128113,
		0.0],
		"rotation":[0.0,
		0.0,
		0.0,
		-1.0],
		"scale":[1.0,
		1.0,
		1.0],
		"children":[13]
	},
	{
		"name":"compartimento2",
		"translation":[0.4227055013179779,
		0.028054993599653245,
		0.12336192280054093],
		"rotation":[0.0,
		0.0,
		0.0,
		-1.0],
		"scale":[1.0,
		1.0,
		1.0],
		"children":[14]
	},
	{
		"name":"packaging",
		"mesh":1,
		"translation":[0.5199652314186096,
		0.031049605458974839,
		0.05844183638691902],
		"rotation":[0.0,
		0.0,
		0.0,
		-1.0],
		"scale":[1.0,
		1.0,
		1.0]
	},
	{
		"name":"packaging",
		"mesh":2,
		"translation":[0.5199652314186096,
		0.2977987825870514,
		0.05844183638691902],
		"rotation":[0.0,
		0.0,
		0.0,
		-1.0],
		"scale":[1.0,
		1.0,
		1.0]
	},
	{
		"name":"packaging.3",
		"mesh":3,
		"translation":[0.5199652314186096,
		0.10843461751937866,
		0.05844183638691902],
		"rotation":[0.0,
		0.0,
		0.0,
		-1.0],
		"scale":[1.0,
		1.0,
		1.0]
	},
	{
		"name":"Subdivisión Superficie",
		"translation":[0.0,
		-0.15264198184013368,
		0.0],
		"rotation":[0.0,
		0.0,
		0.0,
		-1.0],
		"scale":[1.0,
		1.0,
		1.0],
		"children":[15]
	},
	{
		"name":"Subdivisión Superficie.1",
		"translation":[-0.4227055013179779,
		-0.08674626052379608,
		-0.1676875650882721],
		"rotation":[0.0,
		0.0,
		0.0,
		-1.0],
		"scale":[1.0,
		1.0,
		1.0],
		"children":[16]
	},
	{
		"name":"packaging.2",
		"mesh":4,
		"translation":[0.6637461185455322,
		0.17858637869358064,
		0.15258283913135529],
		"rotation":[0.0,
		0.0,
		0.0,
		-1.0],
		"scale":[1.0,
		1.0,
		1.0]
	},
	{
		"name":"packaging.4",
		"mesh":5,
		"translation":[0.617224931716919,
		0.08674626052379608,
		0.2633109390735626],
		"rotation":[0.0,
		0.0,
		0.0,
		-1.0],
		"scale":[1.0,
		1.0,
		1.0]
	}],
	"meshes":[{
		"name":"montura",
		"primitives":[{
			"attributes":{
				"POSITION":1,
				"NORMAL":2,
				"TEXCOORD_0":3
			},
			"indices":0,
			"material":0
		}]
	},
	{
		"name":"packaging",
		"primitives":[{
			"attributes":{
				"POSITION":11,
				"NORMAL":12,
				"TEXCOORD_0":13
			},
			"indices":10,
			"material":1
		}]
	},
	{
		"name":"packaging",
		"primitives":[{
			"attributes":{
				"POSITION":15,
				"NORMAL":16,
				"TEXCOORD_0":17
			},
			"indices":14,
			"material":2
		}]
	},
	{
		"name":"packaging.3",
		"primitives":[{
			"attributes":{
				"POSITION":19,
				"NORMAL":20,
				"TEXCOORD_0":21
			},
			"indices":18,
			"material":3
		}]
	},
	{
		"name":"packaging.2",
		"primitives":[{
			"attributes":{
				"POSITION":23,
				"NORMAL":24,
				"TEXCOORD_0":25
			},
			"indices":22,
			"material":4
		}]
	},
	{
		"name":"packaging.4",
		"primitives":[{
			"attributes":{
				"POSITION":27,
				"NORMAL":28,
				"TEXCOORD_0":29
			},
			"indices":26,
			"material":5
		}]
	}],
	"accessors":[{
		"bufferView":0,
		"type":"SCALAR",
		"componentType":5123,
		"count":196608,
		"byteOffset":0,
		"min":[0],
		"max":[35432]
	},
	{
		"bufferView":1,
		"type":"VEC3",
		"componentType":5126,
		"count":35433,
		"byteOffset":0,
		"min":[-0.08419877290725708,
		-0.04794333130121231,
		-0.008987879380583763],
		"max":[0.0843467116355896,
		0.008560951799154282,
		-0.00013657190720550716]
	},
	{
		"bufferView":1,
		"type":"VEC3",
		"componentType":5126,
		"count":35433,
		"byteOffset":12,
		"min":[-1.0,
		-1.0,
		-1.0],
		"max":[1.0,
		1.0,
		1.0]
	},
	{
		"bufferView":1,
		"type":"VEC2",
		"componentType":5126,
		"count":35433,
		"byteOffset":24,
		"min":[0.0,
		0.0],
		"max":[1.0,
		1.0]
	},
	{
		"bufferView":2,
		"type":"SCALAR",
		"componentType":5126,
		"count":6,
		"byteOffset":0,
		"min":[0.0],
		"max":[3.0]
	},
	{
		"bufferView":2,
		"type":"VEC3",
		"componentType":5126,
		"count":6,
		"byteOffset":24,
		"min":[0.4227055013179779,
		0.028054993599653245,
		0.12336192280054093],
		"max":[0.4227055013179779,
		0.028054993599653245,
		0.2633109390735626]
	},
	{
		"bufferView":3,
		"type":"SCALAR",
		"componentType":5126,
		"count":5,
		"byteOffset":0,
		"min":[0.0],
		"max":[3.0]
	},
	{
		"bufferView":3,
		"type":"VEC4",
		"componentType":5126,
		"count":5,
		"byteOffset":20,
		"min":[0.0,
		0.0,
		0.0,
		-1.0],
		"max":[0.0,
		0.0,
		0.0,
		-1.0]
	},
	{
		"bufferView":4,
		"type":"SCALAR",
		"componentType":5126,
		"count":5,
		"byteOffset":0,
		"min":[0.0],
		"max":[3.0]
	},
	{
		"bufferView":4,
		"type":"VEC3",
		"componentType":5126,
		"count":5,
		"byteOffset":20,
		"min":[1.0,
		1.0,
		1.0],
		"max":[1.0,
		1.0,
		1.0]
	},
	{
		"bufferView":5,
		"type":"SCALAR",
		"componentType":5123,
		"count":9792,
		"byteOffset":0,
		"min":[0],
		"max":[1879]
	},
	{
		"bufferView":6,
		"type":"VEC3",
		"componentType":5126,
		"count":1880,
		"byteOffset":0,
		"min":[-0.12136770039796829,
		-0.028690190985798837,
		-0.07008609175682068],
		"max":[0.12136770039796829,
		0.028647398576140405,
		0.07008609175682068]
	},
	{
		"bufferView":6,
		"type":"VEC3",
		"componentType":5126,
		"count":1880,
		"byteOffset":12,
		"min":[-1.0,
		-1.0,
		-1.0],
		"max":[1.0,
		1.0,
		1.0]
	},
	{
		"bufferView":6,
		"type":"VEC2",
		"componentType":5126,
		"count":1880,
		"byteOffset":24,
		"min":[0.0,
		0.0],
		"max":[1.0,
		1.0]
	},
	{
		"bufferView":7,
		"type":"SCALAR",
		"componentType":5123,
		"count":9792,
		"byteOffset":0,
		"min":[0],
		"max":[1839]
	},
	{
		"bufferView":8,
		"type":"VEC3",
		"componentType":5126,
		"count":1840,
		"byteOffset":0,
		"min":[-0.12653371691703797,
		-0.035090912133455279,
		-0.07525209337472916],
		"max":[0.12653371691703797,
		0.02827819436788559,
		0.07525209337472916]
	},
	{
		"bufferView":8,
		"type":"VEC3",
		"componentType":5126,
		"count":1840,
		"byteOffset":12,
		"min":[-1.0,
		-1.0,
		-1.0],
		"max":[1.0,
		1.0,
		1.0]
	},
	{
		"bufferView":8,
		"type":"VEC2",
		"componentType":5126,
		"count":1840,
		"byteOffset":24,
		"min":[0.0,
		0.0],
		"max":[1.0,
		1.0]
	},
	{
		"bufferView":9,
		"type":"SCALAR",
		"componentType":5123,
		"count":8640,
		"byteOffset":0,
		"min":[0],
		"max":[1441]
	},
	{
		"bufferView":10,
		"type":"VEC3",
		"componentType":5126,
		"count":1442,
		"byteOffset":0,
		"min":[-0.11149490624666214,
		0.012637186795473099,
		-0.06021329015493393],
		"max":[0.11149490624666214,
		0.02821776084601879,
		0.06021329015493393]
	},
	{
		"bufferView":10,
		"type":"VEC3",
		"componentType":5126,
		"count":1442,
		"byteOffset":12,
		"min":[-1.0,
		-1.0,
		-1.0],
		"max":[1.0,
		1.0,
		1.0]
	},
	{
		"bufferView":10,
		"type":"VEC2",
		"componentType":5126,
		"count":1442,
		"byteOffset":24,
		"min":[0.040673092007637027,
		0.0704333633184433],
		"max":[0.959326982498169,
		0.9295666217803955]
	},
	{
		"bufferView":11,
		"type":"SCALAR",
		"componentType":5123,
		"count":15552,
		"byteOffset":0,
		"min":[0],
		"max":[2672]
	},
	{
		"bufferView":12,
		"type":"VEC3",
		"componentType":5126,
		"count":2673,
		"byteOffset":0,
		"min":[-0.2599826157093048,
		-0.11078212410211563,
		-0.15906110405921937],
		"max":[-0.02757919766008854,
		-0.06020030006766319,
		-0.029220914468169214]
	},
	{
		"bufferView":12,
		"type":"VEC3",
		"componentType":5126,
		"count":2673,
		"byteOffset":12,
		"min":[-1.0,
		-1.0,
		-1.0],
		"max":[1.0,
		1.0,
		1.0]
	},
	{
		"bufferView":12,
		"type":"VEC2",
		"componentType":5126,
		"count":2673,
		"byteOffset":24,
		"min":[0.021282430738210679,
		0.03685466945171356],
		"max":[0.9787176251411438,
		0.9631452560424805]
	},
	{
		"bufferView":13,
		"type":"SCALAR",
		"componentType":5123,
		"count":13080,
		"byteOffset":0,
		"min":[0],
		"max":[2243]
	},
	{
		"bufferView":14,
		"type":"VEC3",
		"componentType":5126,
		"count":2244,
		"byteOffset":0,
		"min":[-0.19451940059661866,
		0.0,
		-0.12686090171337129],
		"max":[-2.0392576285498398e-17,
		0.012720847502350808,
		1.0196288142749199e-17]
	},
	{
		"bufferView":14,
		"type":"VEC3",
		"componentType":5126,
		"count":2244,
		"byteOffset":12,
		"min":[-1.0,
		-1.0,
		-1.0],
		"max":[1.0,
		1.0,
		1.0]
	},
	{
		"bufferView":14,
		"type":"VEC2",
		"componentType":5126,
		"count":2244,
		"byteOffset":24,
		"min":[0.0993180125951767,
		0.9631452560424805],
		"max":[0.9006819725036621,
		0.9631452560424805]
	}],
	"bufferViews":[{
		"buffer":0,
		"byteOffset":0,
		"byteLength":393216,
		"target":34963
	},
	{
		"buffer":0,
		"byteOffset":393216,
		"byteLength":1133856,
		"target":34962,
		"byteStride":32
	},
	{
		"buffer":1,
		"byteOffset":0,
		"byteLength":96
	},
	{
		"buffer":1,
		"byteOffset":96,
		"byteLength":100
	},
	{
		"buffer":1,
		"byteOffset":196,
		"byteLength":80
	},
	{
		"buffer":2,
		"byteOffset":0,
		"byteLength":19584,
		"target":34963
	},
	{
		"buffer":2,
		"byteOffset":19584,
		"byteLength":60160,
		"target":34962,
		"byteStride":32
	},
	{
		"buffer":3,
		"byteOffset":0,
		"byteLength":19584,
		"target":34963
	},
	{
		"buffer":3,
		"byteOffset":19584,
		"byteLength":58880,
		"target":34962,
		"byteStride":32
	},
	{
		"buffer":4,
		"byteOffset":0,
		"byteLength":17280,
		"target":34963
	},
	{
		"buffer":4,
		"byteOffset":17280,
		"byteLength":46144,
		"target":34962,
		"byteStride":32
	},
	{
		"buffer":5,
		"byteOffset":0,
		"byteLength":31104,
		"target":34963
	},
	{
		"buffer":5,
		"byteOffset":31104,
		"byteLength":85536,
		"target":34962,
		"byteStride":32
	},
	{
		"buffer":6,
		"byteOffset":0,
		"byteLength":26160,
		"target":34963
	},
	{
		"buffer":6,
		"byteOffset":26160,
		"byteLength":71808,
		"target":34962,
		"byteStride":32
	}],
	"buffers":[{
		"uri":"data:application/octet-stream;base64,",
		"byteLength":1527072
	},
	{
		"uri":"data:application/octet-stream;base64,",
		"byteLength":276
	},
	{
		"uri":"data:application/octet-stream;base64,",
		"byteLength":79744
	},
	{
		"uri":"data:application/octet-stream;base64,",
		"byteLength":78464
	},
	{
		"uri":"data:application/octet-stream;base64,",
		"byteLength":63424
	},
	{
		"uri":"data:application/octet-stream;base64,",
		"byteLength":116640
	},
	{
		"uri":"data:application/octet-stream;base64,",
		"byteLength":97968
	}],
	"materials":[{
		"pbrMetallicRoughness":{
			"baseColorFactor":[1.0,
			1.0,
			1.0,
			1.0],
			"metallicFactor":1.0,
			"roughnessFactor":1.0
		},
		"emissiveFactor":[0.0,
		0.0,
		0.0],
		"alphaMode":"OPAQUE",
		"doubleSided":false,
		"name":"Negras"
	},
	{
		"pbrMetallicRoughness":{
			"baseColorFactor":[1.0,
			1.0,
			1.0,
			1.0],
			"metallicFactor":1.0,
			"roughnessFactor":1.0
		},
		"emissiveFactor":[0.0,
		0.0,
		0.0],
		"alphaMode":"OPAQUE",
		"doubleSided":false,
		"name":""
	},
	{
		"pbrMetallicRoughness":{
			"baseColorFactor":[1.0,
			1.0,
			1.0,
			1.0],
			"metallicFactor":1.0,
			"roughnessFactor":1.0
		},
		"emissiveFactor":[0.0,
		0.0,
		0.0],
		"alphaMode":"OPAQUE",
		"doubleSided":false,
		"name":""
	},
	{
		"pbrMetallicRoughness":{
			"baseColorFactor":[1.0,
			1.0,
			1.0,
			1.0],
			"metallicFactor":1.0,
			"roughnessFactor":1.0
		},
		"emissiveFactor":[0.0,
		0.0,
		0.0],
		"alphaMode":"OPAQUE",
		"doubleSided":false,
		"name":""
	},
	{
		"pbrMetallicRoughness":{
			"baseColorFactor":[1.0,
			1.0,
			1.0,
			1.0],
			"metallicFactor":1.0,
			"roughnessFactor":1.0
		},
		"emissiveFactor":[0.0,
		0.0,
		0.0],
		"alphaMode":"OPAQUE",
		"doubleSided":false,
		"name":""
	},
	{
		"pbrMetallicRoughness":{
			"baseColorFactor":[1.0,
			1.0,
			1.0,
			1.0],
			"metallicFactor":1.0,
			"roughnessFactor":1.0
		},
		"emissiveFactor":[0.0,
		0.0,
		0.0],
		"alphaMode":"OPAQUE",
		"doubleSided":false,
		"name":""
	}],
	"animations":[{
		"samplers":[{
			"input":4,
			"interpolation":"LINEAR",
			"output":5
		},
		{
			"input":6,
			"interpolation":"LINEAR",
			"output":7
		},
		{
			"input":8,
			"interpolation":"LINEAR",
			"output":9
		}],
		"channels":[{
			"sampler":0,
			"target":{
				"node":9,
				"path":"translation"
			}
		},
		{
			"sampler":1,
			"target":{
				"node":9,
				"path":"rotation"
			}
		},
		{
			"sampler":2,
			"target":{
				"node":9,
				"path":"scale"
			}
		}]
	}]
}