{
	"asset":{
		"version":"2.0",
		"generator":"Maxon Cinema 4D 2023.2.1 (#200000219)"
	},
	"scenes":[{
		"nodes":[0]
	}],
	"nodes":[{
		"name":"Subdivisión Superficie",
		"translation":[0.04155872389674187,
		-0.031797878444194797,
		0.029730817303061487],
		"rotation":[-0.16943073272705079,
		0.0,
		0.0,
		-0.9855421185493469],
		"scale":[1.0,
		1.0,
		1.0],
		"children":[1,
		2]
	},
	{
		"name":"Patilla izquierda",
		"mesh":0,
		"translation":[-0.9530897736549377,
		0.06334654241800308,
		-0.11869768798351288],
		"rotation":[0.1523323804140091,
		-0.6935491561889648,
		0.15375615656375886,
		-0.6871269345283508],
		"scale":[14.0,
		14.0,
		14.0]
	},
	{
		"name":"Subdivisión Superficie",
		"children":[3]
	},
	{
		"name":"Patilla derecha",
		"mesh":1,
		"translation":[-1.0833858251571656,
		0.03996208310127258,
		-0.10771279782056809],
		"rotation":[0.15633176267147065,
		0.6751987338066101,
		-0.1496879607439041,
		-0.7051670551300049],
		"scale":[14.0,
		14.0,
		14.0]
	}],
	"meshes":[{
		"name":"Patilla izquierda",
		"primitives":[{
			"attributes":{
				"POSITION":1,
				"NORMAL":2,
				"TEXCOORD_0":3
			},
			"indices":0,
			"material":0
		}]
	},
	{
		"name":"Patilla derecha",
		"primitives":[{
			"attributes":{
				"POSITION":5,
				"NORMAL":6,
				"TEXCOORD_0":7
			},
			"indices":4,
			"material":1
		}]
	}],
	"accessors":[{
		"bufferView":0,
		"type":"SCALAR",
		"componentType":5123,
		"count":103329,
		"byteOffset":0,
		"min":[0],
		"max":[18887]
	},
	{
		"bufferView":1,
		"type":"VEC3",
		"componentType":5126,
		"count":18888,
		"byteOffset":0,
		"min":[-0.0005887417355552316,
		-0.0017565175658091903,
		-0.011825406923890114],
		"max":[0.00026207626797258854,
		0.0004496558103710413,
		-0.000033495580282760787]
	},
	{
		"bufferView":1,
		"type":"VEC3",
		"componentType":5126,
		"count":18888,
		"byteOffset":12,
		"min":[-1.0,
		-1.0,
		-1.0],
		"max":[1.0,
		1.0,
		1.0]
	},
	{
		"bufferView":1,
		"type":"VEC2",
		"componentType":5126,
		"count":18888,
		"byteOffset":24,
		"min":[0.0,
		0.0],
		"max":[1.0,
		1.0]
	},
	{
		"bufferView":2,
		"type":"SCALAR",
		"componentType":5123,
		"count":103287,
		"byteOffset":0,
		"min":[0],
		"max":[18885]
	},
	{
		"bufferView":3,
		"type":"VEC3",
		"componentType":5126,
		"count":18886,
		"byteOffset":0,
		"min":[-0.00026207626797258854,
		-0.0017565175658091903,
		-0.011825406923890114],
		"max":[0.0005887417355552316,
		0.0004496557521633804,
		-0.000033495580282760787]
	},
	{
		"bufferView":3,
		"type":"VEC3",
		"componentType":5126,
		"count":18886,
		"byteOffset":12,
		"min":[-1.0,
		-1.0,
		-0.99996417760849],
		"max":[1.0,
		1.0,
		0.9999651312828064]
	},
	{
		"bufferView":3,
		"type":"VEC2",
		"componentType":5126,
		"count":18886,
		"byteOffset":24,
		"min":[0.0,
		0.0],
		"max":[1.0,
		1.0]
	}],
	"bufferViews":[{
		"buffer":0,
		"byteOffset":0,
		"byteLength":206658,
		"target":34963
	},
	{
		"buffer":0,
		"byteOffset":206660,
		"byteLength":604416,
		"target":34962,
		"byteStride":32
	},
	{
		"buffer":1,
		"byteOffset":0,
		"byteLength":206574,
		"target":34963
	},
	{
		"buffer":1,
		"byteOffset":206576,
		"byteLength":604352,
		"target":34962,
		"byteStride":32
	}],
	"buffers":[{
		"uri":"data:application/octet-stream;base64,",
		"byteLength":811076
	},
	{
		"uri":"data:application/octet-stream;base64,",
		"byteLength":810928
	}],
	"materials":[{
		"pbrMetallicRoughness":{
			"baseColorFactor":[1.0,
			1.0,
			1.0,
			1.0],
			"metallicFactor":1.0,
			"roughnessFactor":1.0
		},
		"emissiveFactor":[0.0,
		0.0,
		0.0],
		"alphaMode":"OPAQUE",
		"doubleSided":false,
		"name":""
	},
	{
		"pbrMetallicRoughness":{
			"baseColorFactor":[1.0,
			1.0,
			1.0,
			1.0],
			"metallicFactor":1.0,
			"roughnessFactor":1.0
		},
		"emissiveFactor":[0.0,
		0.0,
		0.0],
		"alphaMode":"OPAQUE",
		"doubleSided":false,
		"name":""
	}]
}