{
	"asset":{
		"version":"2.0",
		"generator":"Maxon Cinema 4D 2023.2.1 (#200000219)"
	},
	"scenes":[{
		"nodes":[0,
		1]
	}],
	"nodes":[{
		"name":"Subdivisión Superficie.1",
		"translation":[-0.9113973379135132,
		0.19719092547893525,
		-0.0701969563961029],
		"rotation":[0.0,
		0.0,
		0.0,
		-1.0],
		"scale":[1.0,
		1.0,
		1.0],
		"children":[2]
	},
	{
		"name":"Subdivisión Superficie.2",
		"translation":[-0.9113973379135132,
		0.19719092547893525,
		-0.0701969563961029],
		"rotation":[0.0,
		0.0,
		0.0,
		-1.0],
		"scale":[1.0,
		1.0,
		1.0],
		"children":[3]
	},
	{
		"name":"Cubo.1",
		"mesh":0,
		"translation":[-0.0005469821626320481,
		-0.12345340847969055,
		-0.18622364103794099],
		"rotation":[0.0,
		0.0,
		0.0,
		-1.0],
		"scale":[1.0,
		1.0,
		1.0]
	},
	{
		"name":"Cubo.1",
		"mesh":1,
		"translation":[-0.14672081172466279,
		-0.10910461097955704,
		-0.1877194046974182],
		"rotation":[0.0,
		-1.0,
		0.0,
		-6.123234262925839e-17],
		"scale":[1.0,
		1.0,
		1.0]
	}],
	"meshes":[{
		"name":"Cubo.1",
		"primitives":[{
			"attributes":{
				"POSITION":1,
				"NORMAL":2,
				"TEXCOORD_0":3
			},
			"indices":0
		}]
	},
	{
		"name":"Cubo.1",
		"primitives":[{
			"attributes":{
				"POSITION":5,
				"NORMAL":6,
				"TEXCOORD_0":7
			},
			"indices":4
		}]
	}],
	"accessors":[{
		"bufferView":0,
		"type":"SCALAR",
		"componentType":5123,
		"count":21312,
		"byteOffset":0,
		"min":[0],
		"max":[4236]
	},
	{
		"bufferView":1,
		"type":"VEC3",
		"componentType":5126,
		"count":4237,
		"byteOffset":0,
		"min":[-0.162166029214859,
		-0.00934278592467308,
		-0.0020252070389688017],
		"max":[-0.000003287408617325127,
		-0.0000029211178116383964,
		0.0]
	},
	{
		"bufferView":1,
		"type":"VEC3",
		"componentType":5126,
		"count":4237,
		"byteOffset":12,
		"min":[-1.0,
		-1.0,
		-1.0],
		"max":[1.0,
		1.0,
		1.0]
	},
	{
		"bufferView":1,
		"type":"VEC2",
		"componentType":5126,
		"count":4237,
		"byteOffset":24,
		"min":[0.0,
		0.0],
		"max":[1.0,
		1.0]
	},
	{
		"bufferView":2,
		"type":"SCALAR",
		"componentType":5123,
		"count":24384,
		"byteOffset":0,
		"min":[0],
		"max":[4759]
	},
	{
		"bufferView":3,
		"type":"VEC3",
		"componentType":5126,
		"count":4760,
		"byteOffset":0,
		"min":[-0.1621636599302292,
		-0.00934278592467308,
		-0.0020252070389688017],
		"max":[-0.000003287408617325127,
		-0.0000029211178116383964,
		0.0]
	},
	{
		"bufferView":3,
		"type":"VEC3",
		"componentType":5126,
		"count":4760,
		"byteOffset":12,
		"min":[-1.0,
		-1.0,
		-1.0],
		"max":[1.0,
		1.0,
		1.0]
	},
	{
		"bufferView":3,
		"type":"VEC2",
		"componentType":5126,
		"count":4760,
		"byteOffset":24,
		"min":[0.0,
		0.0],
		"max":[1.0,
		1.0]
	}],
	"bufferViews":[{
		"buffer":0,
		"byteOffset":0,
		"byteLength":42624,
		"target":34963
	},
	{
		"buffer":0,
		"byteOffset":42624,
		"byteLength":135584,
		"target":34962,
		"byteStride":32
	},
	{
		"buffer":1,
		"byteOffset":0,
		"byteLength":48768,
		"target":34963
	},
	{
		"buffer":1,
		"byteOffset":48768,
		"byteLength":152320,
		"target":34962,
		"byteStride":32
	}],
	"buffers":[{
		"uri":"data:application/octet-stream;base64,",
		"byteLength":178208
	},
	{
		"uri":"data:application/octet-stream;base64,",
		"byteLength":201088
	}]
}