{
	"asset":{
		"version":"2.0",
		"generator":"Maxon Cinema 4D 2023.2.1 (#200000219)"
	},
	"scenes":[{
		"nodes":[0]
	}],
	"nodes":[{
		"name":"Subdivisión Superficie",
		"translation":[0.05592898651957512,
		0.028828565031290056,
		-0.026003830134868623],
		"rotation":[-0.20811237394809724,
		0.0,
		0.0,
		-0.9781049489974976],
		"scale":[1.0,
		1.0,
		1.0],
		"children":[1,
		2]
	},
	{
		"name":"montura.2",
		"mesh":0,
		"translation":[-0.8202662467956543,
		0.024232221767306329,
		0.007476742845028639],
		"rotation":[0.20811237394809724,
		0.0,
		0.0,
		-0.9781049489974976],
		"scale":[1.0,
		1.0,
		1.0]
	},
	{
		"name":"montura",
		"mesh":1,
		"translation":[-0.8202662467956543,
		0.024232221767306329,
		0.007476742845028639],
		"rotation":[0.20811237394809724,
		0.0,
		0.0,
		-0.9781049489974976],
		"scale":[1.0,
		1.0,
		1.0]
	}],
	"meshes":[{
		"name":"montura.2",
		"primitives":[{
			"attributes":{
				"POSITION":1,
				"NORMAL":2,
				"TEXCOORD_0":3
			},
			"indices":0,
			"material":0
		}]
	},
	{
		"name":"montura",
		"primitives":[{
			"attributes":{
				"POSITION":5,
				"NORMAL":6,
				"TEXCOORD_0":7
			},
			"indices":4,
			"material":1
		}]
	}],
	"accessors":[{
		"bufferView":0,
		"type":"SCALAR",
		"componentType":5123,
		"count":344064,
		"byteOffset":0,
		"min":[0],
		"max":[61984]
	},
	{
		"bufferView":1,
		"type":"VEC3",
		"componentType":5126,
		"count":61985,
		"byteOffset":0,
		"min":[-0.07844534516334534,
		-0.04404143989086151,
		0.032438382506370547],
		"max":[0.0899725928902626,
		0.012543036602437497,
		0.04426821693778038]
	},
	{
		"bufferView":1,
		"type":"VEC3",
		"componentType":5126,
		"count":61985,
		"byteOffset":12,
		"min":[-1.0,
		-0.9999980926513672,
		-1.0],
		"max":[1.0,
		0.999997615814209,
		1.0]
	},
	{
		"bufferView":1,
		"type":"VEC2",
		"componentType":5126,
		"count":61985,
		"byteOffset":24,
		"min":[0.0,
		0.0],
		"max":[1.0,
		1.0]
	},
	{
		"bufferView":2,
		"type":"SCALAR",
		"componentType":5123,
		"count":10044,
		"byteOffset":0,
		"min":[0],
		"max":[2296]
	},
	{
		"bufferView":3,
		"type":"VEC3",
		"componentType":5126,
		"count":2297,
		"byteOffset":0,
		"min":[-0.06516100466251373,
		-0.041508592665195468,
		0.036233242601156238],
		"max":[0.07683667540550232,
		0.011179303750395775,
		0.044238246977329257]
	},
	{
		"bufferView":3,
		"type":"VEC3",
		"componentType":5126,
		"count":2297,
		"byteOffset":12,
		"min":[-0.9999896287918091,
		-0.9998473525047302,
		-0.9999405741691589],
		"max":[0.9999896287918091,
		0.999957263469696,
		0.9999405741691589]
	},
	{
		"bufferView":3,
		"type":"VEC2",
		"componentType":5126,
		"count":2297,
		"byteOffset":24,
		"min":[0.020460443571209909,
		0.12172849476337433],
		"max":[0.6381072402000427,
		0.9845644235610962]
	}],
	"bufferViews":[{
		"buffer":0,
		"byteOffset":0,
		"byteLength":688128,
		"target":34963
	},
	{
		"buffer":0,
		"byteOffset":688128,
		"byteLength":1983520,
		"target":34962,
		"byteStride":32
	},
	{
		"buffer":1,
		"byteOffset":0,
		"byteLength":20088,
		"target":34963
	},
	{
		"buffer":1,
		"byteOffset":20088,
		"byteLength":73504,
		"target":34962,
		"byteStride":32
	}],
	"buffers":[{
		"uri":"data:application/octet-stream;base64,",
		"byteLength":2671648
	},
	{
		"uri":"data:application/octet-stream;base64,",
		"byteLength":93592
	}],
	"materials":[{
		"pbrMetallicRoughness":{
			"baseColorFactor":[0.24919345099459984,
			0.6618705035971222,
			0.185704673671135,
			1.0],
			"metallicFactor":0.0,
			"roughnessFactor":0.20000000298023225
		},
		"emissiveFactor":[0.0,
		0.0,
		0.0],
		"alphaMode":"OPAQUE",
		"doubleSided":false,
		"name":"Verde"
	},
	{
		"pbrMetallicRoughness":{
			"baseColorFactor":[0.033035972792146008,
			0.00522871511818138,
			0.00522871511818138,
			1.0],
			"metallicFactor":0.0,
			"roughnessFactor":0.20000000298023225
		},
		"emissiveFactor":[0.0,
		0.0,
		0.0],
		"alphaMode":"OPAQUE",
		"doubleSided":false,
		"name":"Lentes rojo"
	}]
}