{
	"asset":{
		"version":"2.0",
		"generator":"Maxon Cinema 4D 2023.2.1 (#200000219)"
	},
	"scenes":[{
		"nodes":[0]
	}],
	"nodes":[{
		"name":"Subdivisión Superficie",
		"translation":[0.05092987045645714,
		-0.03232972323894501,
		0.029288506135344507],
		"rotation":[-0.16943073272705079,
		0.0,
		0.0,
		-0.9855421185493469],
		"scale":[1.0,
		1.0,
		1.0],
		"children":[1]
	},
	{
		"name":"montura",
		"mesh":0,
		"translation":[-0.6397961378097534,
		0.045185670256614688,
		-0.10194011777639389],
		"rotation":[0.2164396196603775,
		0.0,
		0.0,
		-0.9762960076332092],
		"scale":[1.0,
		1.0,
		1.0]
	}],
	"meshes":[{
		"name":"montura",
		"primitives":[{
			"attributes":{
				"POSITION":1,
				"NORMAL":2,
				"TEXCOORD_0":3
			},
			"indices":0,
			"material":0
		}]
	}],
	"accessors":[{
		"bufferView":0,
		"type":"SCALAR",
		"componentType":5123,
		"count":192768,
		"byteOffset":0,
		"min":[0],
		"max":[34799]
	},
	{
		"bufferView":1,
		"type":"VEC3",
		"componentType":5126,
		"count":34800,
		"byteOffset":0,
		"min":[-0.08419877290725708,
		-0.04794333130121231,
		-0.00925013143569231],
		"max":[0.0843467116355896,
		0.008560951799154282,
		-0.00013657190720550716]
	},
	{
		"bufferView":1,
		"type":"VEC3",
		"componentType":5126,
		"count":34800,
		"byteOffset":12,
		"min":[-1.0,
		-1.0,
		-1.0],
		"max":[1.0,
		1.0,
		1.0]
	},
	{
		"bufferView":1,
		"type":"VEC2",
		"componentType":5126,
		"count":34800,
		"byteOffset":24,
		"min":[0.0,
		0.0],
		"max":[1.0,
		1.0]
	}],
	"bufferViews":[{
		"buffer":0,
		"byteOffset":0,
		"byteLength":385536,
		"target":34963
	},
	{
		"buffer":0,
		"byteOffset":385536,
		"byteLength":1113600,
		"target":34962,
		"byteStride":32
	}],
	"buffers":[{
		"uri":"data:application/octet-stream;base64,",
		"byteLength":1499136
	}],
	"materials":[{
		"pbrMetallicRoughness":{
			"baseColorFactor":[1.0,
			1.0,
			1.0,
			1.0],
			"metallicFactor":1.0,
			"roughnessFactor":1.0
		},
		"emissiveFactor":[0.0,
		0.0,
		0.0],
		"alphaMode":"OPAQUE",
		"doubleSided":false,
		"name":""
	}]
}