{
	"asset":{
		"version":"2.0",
		"generator":"Maxon Cinema 4D 2023.2.1 (#200000219)"
	},
	"scenes":[{
		"nodes":[0]
	}],
	"nodes":[{
		"name":"Subdivisión Superficie",
		"translation":[0.04155872389674187,
		-0.031797878444194797,
		0.029730817303061487],
		"rotation":[-0.16943073272705079,
		0.0,
		0.0,
		-0.9855421185493469],
		"scale":[1.0,
		1.0,
		1.0],
		"children":[1]
	},
	{
		"name":"montura",
		"mesh":0,
		"translation":[-0.9997963309288025,
		0.045185670256614688,
		-0.10194011777639389],
		"rotation":[0.2164396196603775,
		0.0,
		0.0,
		-0.9762960076332092],
		"scale":[1.0,
		1.0,
		1.0]
	}],
	"meshes":[{
		"name":"montura",
		"primitives":[{
			"attributes":{
				"POSITION":1,
				"NORMAL":2,
				"TEXCOORD_0":3
			},
			"indices":0,
			"material":0
		}]
	}],
	"accessors":[{
		"bufferView":0,
		"type":"SCALAR",
		"componentType":5123,
		"count":282624,
		"byteOffset":0,
		"min":[0],
		"max":[50683]
	},
	{
		"bufferView":1,
		"type":"VEC3",
		"componentType":5126,
		"count":50684,
		"byteOffset":0,
		"min":[-0.08419874310493469,
		-0.04794328287243843,
		-0.008967595174908638],
		"max":[0.0843466967344284,
		0.00856089312583208,
		-0.00013657190720550716]
	},
	{
		"bufferView":1,
		"type":"VEC3",
		"componentType":5126,
		"count":50684,
		"byteOffset":12,
		"min":[-1.0,
		-1.0,
		-1.0],
		"max":[1.0,
		1.0,
		1.0]
	},
	{
		"bufferView":1,
		"type":"VEC2",
		"componentType":5126,
		"count":50684,
		"byteOffset":24,
		"min":[0.0,
		0.0],
		"max":[1.0,
		1.0]
	}],
	"bufferViews":[{
		"buffer":0,
		"byteOffset":0,
		"byteLength":565248,
		"target":34963
	},
	{
		"buffer":0,
		"byteOffset":565248,
		"byteLength":1621888,
		"target":34962,
		"byteStride":32
	}],
	"buffers":[{
		"uri":"data:application/octet-stream;base64,",
		"byteLength":2187136
	}],
	"materials":[{
		"pbrMetallicRoughness":{
			"baseColorFactor":[1.0,
			1.0,
			1.0,
			1.0],
			"metallicFactor":1.0,
			"roughnessFactor":1.0
		},
		"emissiveFactor":[0.0,
		0.0,
		0.0],
		"alphaMode":"OPAQUE",
		"doubleSided":false,
		"name":""
	}]
}