{
	"asset":{
		"version":"2.0",
		"generator":"Maxon Cinema 4D 2023.2.1 (#200000219)"
	},
	"scenes":[{
		"nodes":[0]
	}],
	"nodes":[{
		"name":"Subdivisión Superficie",
		"translation":[0.07275119423866272,
		0.030290059745311738,
		-0.02928278036415577],
		"rotation":[-0.20811237394809724,
		0.0,
		0.0,
		-0.9781049489974976],
		"scale":[1.0,
		1.0,
		1.0],
		"children":[1]
	},
	{
		"name":"montura",
		"mesh":0,
		"translation":[-0.6276489496231079,
		0.04479131102561951,
		0.04911109805107117],
		"rotation":[0.2164396196603775,
		0.0,
		0.0,
		-0.9762960076332092],
		"scale":[1.0,
		1.0,
		1.0]
	}],
	"meshes":[{
		"name":"montura",
		"primitives":[{
			"attributes":{
				"POSITION":1,
				"NORMAL":2,
				"TEXCOORD_0":3
			},
			"indices":0
		}]
	}],
	"accessors":[{
		"bufferView":0,
		"type":"SCALAR",
		"componentType":5123,
		"count":299616,
		"byteOffset":0,
		"min":[0],
		"max":[53239]
	},
	{
		"bufferView":1,
		"type":"VEC3",
		"componentType":5126,
		"count":53240,
		"byteOffset":0,
		"min":[-0.08419868350028992,
		-0.0479431115090847,
		-0.008977056480944157],
		"max":[0.08434663712978363,
		0.008583138696849347,
		-0.00013300948194228113]
	},
	{
		"bufferView":1,
		"type":"VEC3",
		"componentType":5126,
		"count":53240,
		"byteOffset":12,
		"min":[-1.0,
		-1.0,
		-1.0],
		"max":[1.0,
		1.0,
		1.0]
	},
	{
		"bufferView":1,
		"type":"VEC2",
		"componentType":5126,
		"count":53240,
		"byteOffset":24,
		"min":[0.0,
		0.0],
		"max":[1.0,
		1.0]
	}],
	"bufferViews":[{
		"buffer":0,
		"byteOffset":0,
		"byteLength":599232,
		"target":34963
	},
	{
		"buffer":0,
		"byteOffset":599232,
		"byteLength":1703680,
		"target":34962,
		"byteStride":32
	}],
	"buffers":[{
		"uri":"data:application/octet-stream;base64,",
		"byteLength":2302912
	}]
}